<?xml version="1.0" standalone="no"?>
<!DOCTYPE svg PUBLIC "-//W3C//DTD SVG 20010904//EN"
 "http://www.w3.org/TR/2001/REC-SVG-20010904/DTD/svg10.dtd">
<svg version="1.0" xmlns="http://www.w3.org/2000/svg"
 width="1856.000000pt" height="2260.000000pt" viewBox="0 0 1856.000000 2260.000000"
 preserveAspectRatio="xMidYMid meet">

<g transform="translate(0.000000,2260.000000) scale(0.100000,-0.100000)"
fill="#000000" stroke="none">
<path d="M9330 20412 c-14 -4 -31 -20 -38 -35 -12 -25 -10 -37 26 -130 21 -56
44 -122 51 -147 7 -25 16 -58 21 -75 27 -91 42 -200 42 -319 1 -117 -2 -140
-26 -209 -42 -125 -77 -171 -158 -207 -52 -23 -87 -30 -312 -65 -204 -32 -407
-85 -731 -191 -196 -63 -283 -101 -590 -255 -275 -137 -257 -133 -587 -148
-158 -7 -205 -13 -235 -27 -38 -19 -38 -20 -36 -74 9 -229 9 -224 -15 -261
-30 -43 -259 -213 -349 -258 -145 -73 -287 -67 -573 24 -220 71 -324 100 -442
125 -578 124 -1316 76 -1689 -111 -89 -44 -105 -60 -90 -87 14 -26 66 -46 213
-81 155 -37 218 -61 395 -150 152 -75 193 -85 273 -60 80 24 263 9 410 -33 71
-20 228 -90 325 -144 55 -31 113 -63 129 -72 131 -69 273 -203 319 -300 31
-66 31 -70 31 -217 1 -186 -17 -288 -84 -487 -28 -82 -47 -154 -43 -163 5 -14
16 -16 54 -13 107 11 288 131 413 274 135 154 177 231 366 679 39 94 77 176
83 184 35 43 380 166 501 179 86 9 153 4 159 -11 4 -13 -8 -150 -18 -203 -5
-27 -2 -33 17 -37 82 -21 262 85 423 248 179 181 246 218 475 267 94 20 133
23 375 23 250 0 282 -2 430 -28 228 -39 295 -57 625 -162 41 -13 101 -29 133
-35 32 -7 61 -18 64 -26 6 -17 -29 -135 -55 -184 -95 -179 -135 -234 -238
-327 -147 -132 -222 -183 -459 -311 -53 -28 -6 -65 120 -93 81 -18 425 -19
520 -1 185 36 361 104 561 217 154 88 256 161 397 284 159 138 135 127 208
103 63 -21 434 -114 659 -166 243 -56 290 -69 290 -77 0 -15 -46 -101 -74
-138 -41 -55 -133 -127 -263 -207 -168 -103 -213 -159 -213 -261 0 -26 9 -67
20 -91 59 -130 353 -336 560 -392 122 -33 291 -33 374 -1 32 13 75 38 95 57
46 40 89 119 99 176 7 42 10 44 97 91 131 70 208 124 315 218 357 316 588 643
713 1010 51 147 85 288 102 419 14 105 18 117 54 164 57 75 76 135 76 236 0
73 -4 93 -28 142 -79 161 -309 321 -552 384 -178 46 -286 20 -342 -81 -12 -22
-29 -81 -37 -131 -23 -129 -46 -191 -111 -287 -66 -100 -82 -116 -128 -127
-47 -10 -96 8 -165 62 -237 184 -620 420 -924 568 -181 87 -281 130 -573 242
-102 40 -152 90 -219 219 -27 52 -74 136 -105 187 -31 52 -71 119 -89 150 -84
143 -220 321 -327 426 -68 68 -198 169 -271 212 -69 40 -299 125 -352 129 -26
2 -58 1 -72 -3z m346 -288 c107 -71 246 -195 314 -280 30 -38 63 -78 73 -89
62 -69 206 -303 318 -520 119 -230 140 -247 402 -341 195 -70 436 -179 669
-305 290 -155 452 -261 793 -519 99 -74 192 -143 207 -153 40 -25 210 -99 216
-93 6 7 -65 94 -137 168 -48 50 -52 58 -35 63 96 32 146 77 256 235 83 119
136 162 222 180 76 16 156 0 254 -49 45 -23 86 -41 92 -41 8 0 -32 73 -89 160
l-16 24 34 -19 c49 -29 175 -156 190 -193 12 -28 11 -39 -4 -79 -10 -25 -37
-65 -61 -88 -37 -35 -44 -48 -44 -80 0 -170 -103 -570 -195 -757 -96 -196
-321 -481 -536 -680 -120 -111 -191 -163 -347 -252 l-121 -70 -20 -55 c-11
-31 -23 -70 -26 -87 -7 -36 -47 -78 -88 -93 -38 -15 -125 -13 -162 3 -30 13
-30 13 -7 20 29 9 62 62 62 97 0 44 -40 92 -105 124 -49 25 -72 30 -130 30
-76 0 -75 0 -152 58 -28 21 -64 42 -79 46 -15 4 -29 12 -31 18 -2 6 31 30 74
53 169 91 279 202 362 368 34 68 50 80 243 195 49 29 88 55 88 58 0 5 -145 24
-270 34 -81 7 -155 20 -290 50 -58 13 -147 31 -198 41 -51 9 -100 23 -108 32
-13 13 -15 35 -12 121 5 121 29 195 104 317 24 39 44 74 44 79 0 13 -62 -4
-105 -30 -44 -25 -109 -102 -144 -170 -25 -48 -45 -182 -37 -247 5 -45 4 -48
-19 -48 -53 0 -70 50 -63 188 6 108 37 200 108 317 28 48 49 89 46 92 -11 11
-82 -16 -118 -44 -50 -39 -91 -97 -129 -183 -30 -68 -34 -86 -37 -192 -3 -80
-8 -118 -16 -118 -6 0 -25 9 -42 19 -35 21 -44 53 -44 161 0 126 50 269 129
368 24 30 41 55 39 58 -3 2 -29 -3 -58 -12 -41 -12 -67 -29 -110 -72 -88 -89
-134 -201 -146 -359 -7 -81 -8 -83 -33 -83 -41 0 -82 -28 -205 -138 -63 -57
-152 -131 -198 -164 -94 -68 -293 -182 -404 -233 -156 -71 -349 -120 -445
-113 l-43 3 97 73 c53 41 119 99 147 129 77 84 180 266 249 440 27 67 38 84
64 96 100 47 199 71 386 91 130 15 174 28 135 40 -82 25 -235 38 -422 37 -234
-1 -320 12 -519 79 -215 73 -355 107 -653 155 -226 37 -482 39 -705 5 -262
-40 -364 -64 -435 -100 -50 -25 -179 -130 -220 -177 -18 -21 -58 -65 -89 -97
l-56 -59 -8 54 c-14 91 -17 98 -41 115 -42 27 -223 17 -386 -22 -44 -10 109
76 287 162 221 106 338 153 678 270 401 139 981 224 1600 237 l110 2 -90 22
c-115 28 -287 51 -440 59 -131 7 -478 -16 -649 -42 -56 -9 -128 -20 -162 -24
-34 -5 -67 -12 -75 -15 -8 -3 -27 -7 -44 -9 -97 -14 -488 -138 -715 -226 -81
-32 -49 -8 65 48 87 44 180 84 380 164 345 140 776 246 1125 279 190 17 609
15 766 -4 362 -46 790 -161 1229 -331 391 -151 1041 -512 1286 -713 43 -35 80
-63 84 -63 21 0 -231 324 -344 441 -135 142 -425 380 -547 451 -16 9 -74 44
-129 78 -90 55 -350 188 -472 241 -26 12 -105 41 -174 64 -166 57 -256 103
-303 156 -22 23 -64 96 -96 164 -171 360 -284 569 -381 702 -27 37 -115 134
-195 216 -157 159 -161 177 -18 81z m-4497 -2110 c144 -21 222 -39 526 -124
143 -39 285 -78 315 -87 183 -50 466 17 646 152 40 30 77 55 81 55 13 0 -90
-101 -172 -167 -90 -74 -178 -121 -283 -153 -61 -19 -90 -22 -180 -18 -101 4
-118 8 -317 75 -115 40 -232 81 -260 93 -158 69 -415 143 -604 175 l-76 13
109 1 c60 0 156 -6 215 -15z"/>
<path d="M8345 19864 c-142 -23 -321 -100 -477 -206 -64 -43 -91 -46 -183 -22
-101 26 -193 42 -220 37 -39 -8 -31 -37 31 -104 97 -105 107 -155 58 -289 -13
-35 -21 -66 -19 -68 6 -6 99 49 145 88 25 20 71 54 103 75 l58 39 117 -20
c162 -26 422 -26 507 0 181 56 415 226 415 301 0 42 -111 111 -232 145 -72 21
-239 34 -303 24z m195 -164 c36 -6 76 -13 89 -16 24 -5 24 -6 -10 -26 -19 -12
-65 -34 -103 -50 -67 -27 -72 -28 -260 -28 -220 1 -221 2 -53 69 163 64 207
71 337 51z"/>
<path d="M6753 19416 c-78 -15 -168 -43 -281 -87 -51 -20 -90 -29 -131 -29
-33 0 -94 -7 -136 -15 -84 -16 -228 -80 -222 -98 3 -10 84 -48 131 -61 16 -4
1 -24 -90 -118 -60 -62 -129 -144 -153 -181 -41 -62 -48 -67 -80 -67 -112 0
-394 -69 -390 -95 0 -5 41 -24 89 -41 177 -61 205 -97 203 -251 -2 -105 5
-126 34 -101 21 17 92 129 125 198 35 73 70 104 148 133 98 36 296 72 326 59
l23 -11 -25 -56 c-33 -71 -28 -85 24 -75 53 9 84 33 174 132 48 53 93 92 124
107 27 14 87 47 134 74 47 27 103 59 124 71 98 52 259 233 323 362 l37 76 -26
23 c-60 51 -333 80 -485 51z m307 -136 c0 -13 -85 -117 -129 -159 -20 -18 -55
-46 -77 -62 l-42 -29 -26 21 c-50 39 -85 135 -67 181 8 22 20 28 63 37 108 21
278 28 278 11z m-370 -205 c12 -19 33 -44 47 -55 32 -25 30 -27 -67 -78 -128
-68 -318 -122 -550 -157 -52 -8 -96 -12 -98 -10 -5 5 76 101 110 130 12 11 61
54 108 94 118 102 178 141 300 194 l105 46 12 -65 c7 -36 21 -80 33 -99z"/>
<path d="M6819 19214 c-17 -21 0 -49 31 -49 31 0 48 28 31 49 -8 9 -21 16 -31
16 -10 0 -23 -7 -31 -16z"/>
<path d="M8331 17549 c-96 -21 -206 -72 -341 -158 -87 -55 -100 -60 -150 -60
-30 0 -84 6 -120 14 -36 8 -89 14 -117 15 -65 0 -68 -12 -19 -80 71 -99 80
-140 50 -252 -8 -33 -13 -62 -10 -65 12 -12 86 32 246 145 l45 33 100 -21
c181 -38 269 -50 375 -50 177 0 326 43 482 137 73 44 168 129 168 151 0 10
-97 88 -150 119 -144 87 -367 116 -559 72z"/>
<path d="M4718 17375 c-82 -28 -194 -101 -244 -158 -49 -58 -96 -154 -134
-276 -18 -57 -40 -111 -50 -121 -11 -11 -54 -39 -97 -64 -87 -50 -131 -90
-113 -101 6 -4 44 -10 85 -14 97 -9 120 -26 170 -128 22 -46 43 -83 47 -83 9
0 25 53 38 130 20 115 42 151 113 189 159 87 239 165 307 302 41 81 70 203 70
295 l0 54 -62 -1 c-36 -1 -92 -11 -130 -24z m37 -166 c-22 -61 -69 -139 -116
-193 -42 -47 -157 -141 -164 -134 -7 7 31 121 59 176 35 70 103 137 169 168
29 13 55 24 59 24 4 0 1 -19 -7 -41z"/>
<path d="M5306 16900 c-142 -25 -324 -139 -482 -303 -67 -69 -108 -102 -150
-122 -62 -30 -204 -159 -204 -186 0 -13 15 -17 69 -21 37 -3 73 -8 78 -11 6
-4 -3 -52 -22 -124 -18 -65 -38 -161 -45 -213 -7 -52 -14 -100 -15 -107 -2 -6
-36 -37 -76 -68 -104 -84 -195 -172 -186 -181 4 -4 48 -2 98 5 70 10 97 10
119 1 39 -16 92 -96 131 -197 18 -46 36 -83 41 -83 19 0 36 69 42 165 16 252
14 244 49 262 66 33 225 159 307 242 89 90 185 222 239 328 86 172 128 404
103 573 -8 51 -14 54 -96 40z m-46 -201 c0 -17 -9 -73 -21 -123 -43 -185 -178
-411 -328 -547 -74 -66 -186 -149 -203 -149 -21 0 33 234 81 356 36 89 83 171
149 258 l45 59 19 -52 c14 -38 31 -60 60 -82 49 -35 57 -35 92 -8 32 25 33 35
2 43 -48 12 -116 87 -116 129 0 13 192 147 211 147 5 0 9 -14 9 -31z"/>
<path d="M5117 16606 c-10 -26 4 -47 27 -44 15 2 21 10 21 28 0 29 -38 41 -48
16z"/>
<path d="M6810 16894 c-61 -5 -150 -24 -150 -32 0 -13 15 -27 87 -85 70 -57
92 -85 75 -96 -4 -3 -30 -21 -57 -40 -114 -79 -238 -197 -332 -314 -53 -67
-103 -128 -112 -134 -10 -9 -56 -13 -145 -13 -161 0 -296 -19 -296 -40 0 -5
19 -19 42 -31 98 -50 206 -128 229 -165 23 -37 24 -46 22 -191 0 -91 3 -153 8
-153 19 0 55 49 142 194 49 80 103 160 120 178 41 41 120 75 204 88 95 16 356
30 366 21 7 -7 -2 -50 -29 -138 -6 -21 -3 -23 26 -23 53 0 148 59 240 148 71
70 106 94 208 148 68 36 147 80 175 98 57 37 165 129 211 179 38 42 126 176
126 192 0 19 -107 89 -180 118 -36 14 -103 33 -149 42 -83 17 -109 17 -451 3
-14 -1 -59 8 -100 19 -77 21 -201 33 -280 27z m870 -211 c41 -8 81 -18 88 -22
33 -18 -254 -262 -292 -248 -49 19 -110 159 -104 239 3 42 4 43 43 49 55 9
175 1 265 -18z m-358 -64 c-5 -89 10 -143 58 -204 l39 -49 -52 -19 c-166 -61
-299 -89 -497 -107 -74 -6 -177 -16 -229 -21 -52 -5 -97 -7 -100 -4 -9 9 199
207 270 257 146 104 396 215 489 217 25 1 26 0 22 -70z"/>
<path d="M7499 16629 c-15 -28 3 -69 30 -69 23 0 51 25 51 45 0 20 -28 45 -50
45 -11 0 -24 -10 -31 -21z"/>
<path d="M4040 16476 c-125 -44 -213 -103 -333 -221 -60 -60 -160 -190 -179
-235 -2 -3 -39 -33 -83 -67 -96 -73 -146 -125 -180 -192 -31 -62 -33 -86 -6
-71 23 12 111 13 129 1 11 -6 10 -32 -4 -137 -12 -91 -15 -166 -11 -257 l6
-128 -72 -92 c-98 -125 -132 -182 -152 -251 -9 -32 -14 -60 -12 -62 2 -2 39
12 82 32 107 48 181 67 209 52 51 -27 91 -67 138 -136 27 -40 55 -71 61 -69
22 7 18 93 -13 245 -16 83 -30 163 -30 177 0 20 30 60 115 153 64 70 136 157
161 194 25 38 49 66 53 64 3 -2 20 -32 36 -65 33 -71 39 -69 81 22 26 57 29
73 31 192 2 111 6 141 28 203 63 177 88 412 61 560 -13 76 -28 113 -45 111 -3
0 -35 -11 -71 -23z m-20 -223 c-1 -49 -15 -175 -26 -225 -5 -24 -10 -28 -42
-28 -71 1 -162 64 -162 112 0 27 189 186 223 188 4 0 7 -21 7 -47z m-167 -308
c20 -8 55 -15 77 -15 49 0 49 3 -11 -134 -64 -149 -205 -344 -361 -501 l-30
-30 5 115 c11 217 55 396 138 563 58 117 55 115 103 62 23 -24 58 -51 79 -60z"/>
<path d="M3884 16156 c-3 -8 -4 -23 -2 -33 5 -25 51 -25 56 0 7 36 -42 65 -54
33z"/>
<path d="M9077 16447 c3 -7 32 -39 64 -72 177 -187 453 -538 585 -743 31 -48
95 -144 142 -214 47 -71 83 -131 80 -134 -4 -3 -39 17 -80 44 -82 56 -182 107
-338 175 -227 98 -430 150 -695 177 -60 6 -147 15 -192 21 -131 15 -792 12
-985 -5 -218 -20 -398 -42 -528 -66 -294 -53 -264 -46 -595 -141 -386 -110
-745 -253 -1034 -411 -264 -145 -340 -202 -488 -367 -92 -104 -147 -190 -192
-303 -74 -183 -99 -348 -111 -713 -6 -196 -14 -304 -30 -395 -24 -139 -71
-365 -100 -480 -10 -41 -31 -145 -47 -230 -25 -142 -28 -176 -28 -400 0 -221
2 -254 23 -333 25 -101 26 -107 12 -107 -6 0 -38 57 -71 128 l-61 127 6 135
c11 220 -19 349 -115 496 -48 73 -157 169 -183 161 -27 -9 -85 -104 -105 -174
-27 -93 -30 -249 -6 -338 17 -64 60 -148 106 -207 54 -68 88 -156 99 -258 6
-52 13 -111 17 -130 l6 -35 33 73 c18 39 37 72 41 72 10 0 118 -171 158 -250
15 -30 40 -73 55 -95 15 -22 60 -91 99 -154 96 -153 311 -452 417 -581 346
-419 680 -720 1139 -1027 181 -121 245 -158 440 -256 386 -195 793 -337 1249
-436 426 -93 863 -121 1316 -86 195 16 472 54 585 80 347 81 516 133 760 230
208 83 247 100 455 205 325 163 639 372 955 639 216 182 515 502 721 771 332
433 597 942 763 1467 71 226 145 542 170 738 6 44 18 130 26 190 60 439 36
898 -76 1460 -56 281 -82 380 -138 546 -115 334 -156 431 -289 694 -102 202
-243 435 -261 435 -4 0 -38 -31 -75 -69 l-69 -70 92 -160 c50 -87 118 -215
150 -283 165 -347 184 -393 232 -551 17 -56 37 -124 46 -151 8 -27 25 -102 39
-168 20 -102 24 -147 24 -313 0 -226 -6 -263 -91 -571 -56 -205 -125 -354
-264 -564 -154 -234 -328 -416 -584 -608 -320 -241 -825 -479 -1317 -621 -191
-56 -570 -128 -837 -161 -180 -22 -591 -45 -609 -34 -6 4 5 15 28 26 257 129
523 347 722 592 374 461 686 974 914 1506 102 237 240 675 288 914 43 214 100
677 83 684 -4 1 -46 18 -93 36 -97 38 -98 38 -99 -49 -1 -65 -27 -287 -47
-395 -70 -397 -157 -712 -269 -975 -26 -60 -55 -132 -65 -160 -55 -153 -348
-725 -370 -725 -3 0 -3 33 1 73 39 379 -51 801 -264 1238 -142 293 -178 362
-291 559 -136 235 -257 417 -422 633 -138 180 -353 438 -368 442 -6 2 -68 6
-139 9 -97 4 -126 2 -120 -7z m-992 -927 c3 -5 -13 -17 -37 -27 -213 -85 -395
-212 -595 -415 -121 -122 -190 -204 -321 -381 -255 -343 -459 -675 -590 -962
-28 -60 -77 -168 -110 -240 -69 -152 -186 -460 -235 -625 -39 -128 -127 -513
-151 -660 -54 -326 -70 -705 -42 -975 17 -162 54 -373 81 -461 8 -27 15 -56
15 -64 0 -33 -352 340 -491 520 -129 167 -312 456 -402 636 -41 81 -161 388
-200 511 -77 241 -130 567 -131 808 -1 161 8 239 44 385 32 127 40 224 27 324
-33 253 12 425 162 622 128 169 203 230 446 365 210 117 269 145 525 247 418
166 908 294 1331 346 68 8 165 21 214 27 76 10 215 19 412 27 23 1 45 -2 48
-8z m1068 -89 c379 -103 625 -246 877 -507 220 -229 341 -461 414 -789 100
-452 14 -929 -232 -1296 -139 -207 -400 -438 -632 -558 -220 -115 -514 -190
-746 -191 -161 0 -296 23 -558 96 -311 87 -686 367 -877 654 -175 263 -279
603 -279 910 0 343 79 624 256 905 239 382 601 644 1059 770 139 39 193 44
410 41 178 -3 197 -5 308 -35z m4271 -1398 c3 -27 9 -125 13 -218 12 -354 -49
-876 -142 -1202 -98 -340 -173 -542 -312 -838 -232 -495 -541 -925 -949 -1325
-390 -382 -740 -633 -1209 -868 -495 -248 -892 -367 -1535 -459 -159 -23 -695
-26 -860 -5 -390 50 -702 139 -983 281 -251 126 -398 231 -582 416 -213 212
-356 406 -440 596 -25 57 -53 119 -61 136 -81 177 -140 436 -165 728 -21 249
5 720 57 1005 48 266 185 733 283 968 83 196 172 384 271 572 101 190 142 256
127 204 -13 -44 -18 -298 -8 -414 18 -215 66 -403 166 -649 143 -352 285 -624
513 -981 628 -983 1552 -1820 2282 -2067 63 -22 116 -43 118 -48 3 -7 -21 -16
-173 -65 -125 -39 -339 -83 -550 -111 -194 -27 -639 -38 -781 -20 -49 7 -129
16 -179 22 -278 32 -700 147 -1030 282 -132 53 -390 178 -461 223 -58 36 -94
50 -94 35 0 -21 117 -179 180 -242 127 -129 235 -184 595 -305 328 -111 489
-148 845 -196 242 -32 685 -32 915 0 419 59 586 99 936 223 250 88 514 211
758 353 428 249 960 729 1258 1136 231 317 350 522 519 898 127 282 251 728
308 1108 13 84 18 97 76 185 34 52 77 123 95 159 48 95 129 320 156 432 13 54
27 98 30 98 4 0 9 -21 13 -47z m-618 -1059 c-3 -8 -19 -75 -36 -147 -73 -321
-205 -666 -369 -972 -101 -187 -149 -267 -230 -384 -237 -340 -482 -606 -832
-901 -81 -68 -293 -222 -368 -267 -36 -22 -120 -73 -185 -113 -103 -63 -360
-184 -406 -191 -57 -9 -339 55 -466 107 -267 107 -591 309 -904 563 -168 136
-541 500 -661 645 -266 320 -509 651 -613 835 -72 126 -71 131 17 72 269 -181
638 -302 1057 -345 371 -38 896 -48 1175 -21 398 38 467 49 755 112 829 182
1577 539 1975 942 77 79 103 97 91 65z m-8020 -449 c23 -123 43 -203 86 -350
27 -95 113 -301 180 -435 141 -280 298 -519 497 -755 116 -138 411 -428 559
-550 l133 -110 87 -143 c123 -203 250 -369 382 -499 63 -62 111 -113 107 -113
-3 0 -73 33 -154 74 -560 283 -1140 778 -1547 1321 -124 165 -160 221 -224
351 -156 311 -215 564 -215 914 0 193 17 341 54 465 l12 40 8 -35 c4 -19 20
-98 35 -175z"/>
<path d="M5627 14515 c-72 -49 -188 -154 -256 -230 -69 -79 -140 -214 -172
-330 -33 -117 -31 -301 4 -445 l25 -105 -22 -25 c-12 -14 -49 -54 -81 -90 -59
-65 -170 -218 -164 -225 2 -2 38 8 79 23 89 31 189 35 235 10 17 -9 68 -55
115 -102 46 -47 88 -86 94 -86 25 0 -26 307 -65 394 -18 38 -5 64 82 166 169
199 263 404 284 618 8 75 -7 211 -32 302 -20 69 -59 160 -70 159 -4 0 -30 -15
-56 -34z"/>
<path d="M8738 15074 c-16 -3 -28 -8 -27 -12 1 -18 262 -188 572 -373 240
-144 397 -300 516 -513 124 -225 166 -452 126 -700 -30 -193 -143 -466 -259
-628 -29 -41 -59 -86 -66 -99 l-13 -24 28 25 c237 213 402 446 460 645 9 33
23 80 30 105 44 149 39 432 -9 625 -46 181 -173 401 -314 542 -200 199 -358
300 -562 358 -52 14 -111 31 -130 36 -38 11 -308 20 -352 13z"/>
<path d="M12363 15912 l-72 -76 33 -55 c60 -100 154 -293 204 -421 132 -336
161 -420 207 -610 43 -180 93 -431 105 -530 6 -52 16 -128 21 -168 5 -40 9
-141 10 -225 l1 -152 58 118 c31 65 72 167 90 227 35 121 35 135 4 350 -33
225 -126 599 -212 850 -32 92 -114 281 -190 436 -42 87 -181 336 -185 333 -1
-1 -34 -35 -74 -77z"/>
<path d="M5615 15905 c-212 -54 -308 -106 -420 -227 -83 -88 -154 -198 -234
-363 -48 -99 -76 -144 -93 -152 -33 -15 -148 -101 -148 -111 0 -5 29 -14 65
-21 36 -7 69 -18 73 -24 4 -6 21 -50 37 -97 17 -47 35 -85 40 -85 16 0 50 80
69 160 11 45 25 80 39 93 12 11 96 64 187 117 91 54 186 113 212 132 67 49
163 156 210 235 104 175 141 371 69 367 -9 0 -56 -11 -106 -24z"/>
<path d="M4213 15282 c-126 -136 -181 -212 -236 -325 -48 -99 -107 -263 -107
-298 0 -10 -39 -63 -86 -116 -136 -154 -240 -310 -220 -330 4 -5 63 -8 132 -7
l123 0 6 -45 c24 -181 101 -406 216 -634 59 -116 59 -106 -13 -286 -61 -149
-115 -361 -93 -361 8 0 94 70 162 133 112 102 172 97 348 -32 l70 -51 3 35 c6
70 -26 155 -110 295 -45 74 -90 146 -100 159 -22 29 -23 61 -2 132 43 144 199
509 218 509 6 0 27 -22 46 -50 19 -27 38 -49 41 -50 12 0 39 116 39 166 0 61
-23 182 -48 252 -15 42 -20 85 -21 200 -4 309 -65 543 -193 737 -30 46 -48 65
-63 65 -14 0 -52 -33 -112 -98z m116 -189 c63 -125 96 -313 95 -538 -2 -253
-30 -374 -149 -635 -31 -69 -64 -152 -72 -185 -20 -79 -26 -90 -40 -73 -19 23
-120 281 -150 379 -25 86 -28 108 -28 254 0 121 5 183 19 253 11 50 24 92 28
92 5 0 25 -11 46 -23 43 -28 114 -47 171 -47 51 0 118 26 132 51 18 34 2 41
-71 34 -57 -6 -75 -3 -119 15 -50 22 -111 79 -111 103 2 63 183 357 221 357 5
0 17 -17 28 -37z"/>
<path d="M4200 14865 c-17 -21 -8 -47 22 -65 26 -14 29 -13 50 7 19 19 20 26
10 48 -13 29 -61 35 -82 10z"/>
<path d="M3412 13958 c-75 -123 -107 -262 -99 -433 9 -189 44 -293 131 -395
55 -64 56 -75 20 -218 -25 -99 -27 -172 -4 -172 4 0 32 29 60 65 79 99 112
111 215 75 32 -11 62 -20 66 -20 15 0 -15 65 -61 135 -26 39 -50 79 -54 90 -3
11 5 65 19 119 20 79 25 123 25 223 0 186 -36 301 -130 417 -51 63 -141 146
-159 146 -5 0 -18 -15 -29 -32z m93 -234 c13 -8 36 -45 52 -82 27 -64 28 -75
28 -217 0 -203 -21 -240 -76 -132 -49 94 -75 304 -53 416 7 35 15 38 49 15z"/>
</g>
</svg>
